<svg xmlns="http://www.w3.org/2000/svg" width="2200" height="1080" viewBox="0 0 2200 1080">
<defs>
 <marker id="a" markerWidth="8" markerHeight="8" refX="7" refY="4" orient="auto"><path d="M0 0L8 4L0 8Z" fill="#253247"/></marker>
 <marker id="p" markerWidth="8" markerHeight="8" refX="7" refY="4" orient="auto"><path d="M0 0L8 4L0 8Z" fill="#7355A5"/></marker>
 <pattern id="cell" width="15" height="15" patternUnits="userSpaceOnUse"><circle cx="3" cy="4" r="2" fill="#C95F61"/><circle cx="11" cy="10" r="2.7" fill="#8D4B83"/><circle cx="13" cy="2" r="1.2" fill="#E49A5D"/></pattern>
 <style>
 .t{font-family:Arial,Helvetica,sans-serif;fill:#253247;font-weight:600;letter-spacing:0}.h{font-size:21px}.m{font-size:17px}.s{font-size:14px}.xs{font-size:12px}
 .e{fill:none;stroke:#253247;stroke-width:2.1;marker-end:url(#a)}.n{fill:none;stroke:#6D788A;stroke-width:1.5}.d{fill:none;stroke:#7892AD;stroke-width:1.8;stroke-dasharray:7 6}.r{fill:none;stroke:#7355A5;stroke-width:2.2;stroke-dasharray:8 6;marker-end:url(#p)}
 </style>
</defs>
<rect width="2200" height="1080" fill="#fff"/>
<text class="t h" x="34" y="42">(a) Modality encoding</text>
<text class="t h" x="690" y="42">(b) Disentanglement and quality-aware fusion</text>
<text class="t h" x="34" y="792">(c) Missing-MPM reconstruction</text>
<path d="M660 28V748M28 760H2172" stroke="#D7DCE4" stroke-width="1.5"/>

<!-- MRI -->
<g transform="translate(38 88)">
 <rect width="132" height="120" rx="6" fill="#F7FAFC" stroke="#7394B2" stroke-width="1.8"/>
 <rect x="12" y="12" width="108" height="78" rx="4" fill="#111820"/>
 <ellipse cx="66" cy="51" rx="37" ry="30" fill="#C5CDD5"/><ellipse cx="66" cy="51" rx="25" ry="20" fill="#6D7781"/>
 <path d="M51 48C58 29 86 31 89 51C91 70 67 76 52 63Z" fill="none" stroke="#51C2BD" stroke-width="3"/>
 <text class="t m" x="66" y="111" text-anchor="middle">ROI-MRI</text>
</g>
<path class="e" d="M170 148H224"/>
<g transform="translate(224 100)">
 <rect width="172" height="96" rx="6" fill="#DCEAF5" stroke="#6388A6" stroke-width="1.8"/>
 <g transform="translate(18 23)"><rect width="44" height="44" fill="#B9D1E3" stroke="#6388A6"/><path d="M7 9H36M7 18H36M7 27H36M7 36H36M10 6V39M20 6V39M30 6V39" stroke="#fff"/></g>
 <text class="t h" x="116" y="43" text-anchor="middle">MedCLIP</text><text class="t s" x="116" y="68" text-anchor="middle">ResNet-50</text>
</g>
<path class="e" d="M396 148H450"/>
<g transform="translate(450 112)"><rect x="22" y="18" width="112" height="62" fill="#ABC8DD" stroke="#6388A6"/><rect x="11" y="9" width="112" height="62" fill="#C7DCEB" stroke="#6388A6"/><rect width="112" height="62" fill="#E2EEF6" stroke="#6388A6"/><text class="t m" x="56" y="38" text-anchor="middle">512-D</text></g>

<!-- MPM -->
<g transform="translate(38 302)"><rect width="132" height="144" rx="6" fill="#FFF8F6" stroke="#D77D75" stroke-width="1.8"/><rect x="12" y="12" width="108" height="84" rx="4" fill="#F4D7D0"/><rect x="12" y="12" width="108" height="84" rx="4" fill="url(#cell)"/><text class="t m" x="66" y="132" text-anchor="middle">MPM</text></g>
<g transform="translate(184 316)">
 <rect width="56" height="56" fill="url(#cell)" stroke="#D77D75"/><rect x="10" y="68" width="66" height="66" fill="url(#cell)" stroke="#D77D75"/><rect x="72" y="14" width="76" height="76" fill="url(#cell)" stroke="#D77D75"/>
 <text class="t xs" x="28" y="-7" text-anchor="middle">×1</text><text class="t xs" x="43" y="151" text-anchor="middle">×2</text><text class="t xs" x="110" y="108" text-anchor="middle">×4</text>
</g>
<path class="e" d="M332 374H370"/>
<g transform="translate(370 326)"><rect width="140" height="96" rx="6" fill="#F8DFDA" stroke="#C66F65" stroke-width="1.8"/><text class="t h" x="70" y="42" text-anchor="middle">DINOv2</text><text class="t s" x="70" y="68" text-anchor="middle">ViT-S/14</text></g>
<path class="e" d="M510 374H534"/>
<g transform="translate(534 314)">
 <rect width="76" height="28" rx="4" fill="#F8C9C2" stroke="#C66F65"/><text class="t s" x="38" y="19" text-anchor="middle">v₁+e₁</text>
 <rect y="42" width="76" height="28" rx="4" fill="#F1AAA0" stroke="#C66F65"/><text class="t s" x="38" y="61" text-anchor="middle">v₂+e₂</text>
 <rect y="84" width="76" height="28" rx="4" fill="#E2877E" stroke="#C66F65"/><text class="t s" x="38" y="103" text-anchor="middle">v₃+e₃</text>
 <path d="M78 14H99M78 56H99M78 98H99" class="n"/><circle cx="115" cy="56" r="19" fill="#fff" stroke="#C66F65" stroke-width="1.7"/><text class="t s" x="115" y="61" text-anchor="middle">Attn</text>
</g>

<!-- TEXT -->
<g transform="translate(38 564)"><rect width="132" height="122" rx="6" fill="#F6FAF7" stroke="#70A080" stroke-width="1.8"/><rect x="17" y="18" width="98" height="6" rx="3" fill="#70A080"/><path d="M17 39H100M17 55H110M17 71H82M17 87H104" stroke="#B7CDBE" stroke-width="6" stroke-linecap="round"/><text class="t m" x="66" y="114" text-anchor="middle">Report</text></g>
<path class="e" d="M170 625H224"/>
<g transform="translate(224 577)"><rect width="172" height="96" rx="6" fill="#DDEEE1" stroke="#659476" stroke-width="1.8"/><rect x="18" y="25" width="44" height="44" rx="4" fill="#B7D4BF"/><text class="t s" x="40" y="52" text-anchor="middle">[CLS]</text><text class="t h" x="116" y="43" text-anchor="middle">BioBERT</text><text class="t s" x="116" y="68" text-anchor="middle">base-cased</text></g>
<path class="e" d="M396 625H450"/>
<g transform="translate(450 589)"><rect x="22" y="18" width="112" height="62" fill="#AFCFBA" stroke="#659476"/><rect x="11" y="9" width="112" height="62" fill="#C8DFCF" stroke="#659476"/><rect width="112" height="62" fill="#E3F0E7" stroke="#659476"/><text class="t m" x="56" y="38" text-anchor="middle">768-D</text></g>

<path class="e" d="M584 143H708M668 370H708M584 620H708"/>

<!-- Gaussian factors -->
<g transform="translate(708 84)">
 <rect width="314" height="132" rx="6" fill="#F9FAFC" stroke="#78869A" stroke-width="1.8"/><text class="t s" x="16" y="22">q(z|x)</text>
 <rect x="24" y="37" width="118" height="76" rx="4" fill="#DFEBF5" stroke="#7895B0"/><text class="t m" x="83" y="68" text-anchor="middle">Shared</text><text class="t s" x="83" y="95" text-anchor="middle">μˢ   log σ²ˢ</text>
 <rect x="172" y="37" width="118" height="76" rx="4" fill="#EEE8F6" stroke="#8A75AF"/><text class="t m" x="231" y="68" text-anchor="middle">Private</text><text class="t s" x="231" y="95" text-anchor="middle">μᵖ   log σ²ᵖ</text>
</g>
<g transform="translate(708 304)">
 <rect width="314" height="132" rx="6" fill="#F9FAFC" stroke="#78869A" stroke-width="1.8"/><text class="t s" x="16" y="22">q(z|x)</text>
 <rect x="24" y="37" width="118" height="76" rx="4" fill="#F8DFDA" stroke="#C66F65"/><text class="t m" x="83" y="68" text-anchor="middle">Shared</text><text class="t s" x="83" y="95" text-anchor="middle">μˢ   log σ²ˢ</text>
 <rect x="172" y="37" width="118" height="76" rx="4" fill="#EEE8F6" stroke="#8A75AF"/><text class="t m" x="231" y="68" text-anchor="middle">Private</text><text class="t s" x="231" y="95" text-anchor="middle">μᵖ   log σ²ᵖ</text>
</g>
<g transform="translate(708 554)">
 <rect width="314" height="132" rx="6" fill="#F9FAFC" stroke="#78869A" stroke-width="1.8"/><text class="t s" x="16" y="22">q(z|x)</text>
 <rect x="24" y="37" width="118" height="76" rx="4" fill="#DDEEE1" stroke="#659476"/><text class="t m" x="83" y="68" text-anchor="middle">Shared</text><text class="t s" x="83" y="95" text-anchor="middle">μˢ   log σ²ˢ</text>
 <rect x="172" y="37" width="118" height="76" rx="4" fill="#EEE8F6" stroke="#8A75AF"/><text class="t m" x="231" y="68" text-anchor="middle">Private</text><text class="t s" x="231" y="95" text-anchor="middle">μᵖ   log σ²ᵖ</text>
</g>
<path class="d" d="M791 197V341M791 417V591"/><circle cx="791" cy="258" r="21" fill="#fff" stroke="#7892AD" stroke-width="1.7"/><text class="t s" x="791" y="263" text-anchor="middle">MI</text><circle cx="791" cy="491" r="21" fill="#fff" stroke="#7892AD" stroke-width="1.7"/><text class="t s" x="791" y="496" text-anchor="middle">MI</text>
<path d="M850 213Q891 255 932 213M850 433Q891 475 932 433M850 683Q891 725 932 683" class="n"/><text class="t m" x="891" y="251" text-anchor="middle">⊥</text><text class="t m" x="891" y="471" text-anchor="middle">⊥</text><text class="t m" x="891" y="721" text-anchor="middle">⊥</text>

<!-- Tokens + quality -->
<g transform="translate(1070 94)"><circle cx="48" cy="56" r="40" fill="#E8F1F8" stroke="#6388A6" stroke-width="1.8"/><text class="t s" x="48" y="51" text-anchor="middle">zˢ+A(zᵖ)</text><text class="t s" x="48" y="73" text-anchor="middle">+ eᴬ</text><path class="e" d="M88 56H137"/><rect x="137" y="20" width="112" height="72" rx="4" fill="#fff" stroke="#6388A6"/><text class="t m" x="193" y="49" text-anchor="middle">qᴬ</text><text class="t xs" x="193" y="72" text-anchor="middle">quality − σ²</text></g>
<g transform="translate(1070 314)"><circle cx="48" cy="56" r="40" fill="#FBE7E3" stroke="#C66F65" stroke-width="1.8"/><text class="t s" x="48" y="51" text-anchor="middle">zˢ+A(zᵖ)</text><text class="t s" x="48" y="73" text-anchor="middle">+ eⱽ</text><path class="e" d="M88 56H137"/><rect x="137" y="20" width="112" height="72" rx="4" fill="#fff" stroke="#C66F65"/><text class="t m" x="193" y="49" text-anchor="middle">qⱽ</text><text class="t xs" x="193" y="72" text-anchor="middle">quality − σ²</text></g>
<g transform="translate(1070 564)"><circle cx="48" cy="56" r="40" fill="#E6F2E9" stroke="#659476" stroke-width="1.8"/><text class="t s" x="48" y="51" text-anchor="middle">zˢ+A(zᵖ)</text><text class="t s" x="48" y="73" text-anchor="middle">+ eᴸ</text><path class="e" d="M88 56H137"/><rect x="137" y="20" width="112" height="72" rx="4" fill="#fff" stroke="#659476"/><text class="t m" x="193" y="49" text-anchor="middle">qᴸ</text><text class="t xs" x="193" y="72" text-anchor="middle">quality − σ²</text></g>
<path class="e" d="M1022 150H1070M1022 370H1070M1022 620H1070"/>

<!-- Quality fusion -->
<path class="n" d="M1319 150H1350V315H1380M1319 370H1380M1319 620H1350V425H1380"/>
<g transform="translate(1380 244)">
 <rect width="190" height="260" rx="6" fill="#FFF6DE" stroke="#C89C43" stroke-width="1.8"/><text class="t h" x="95" y="34" text-anchor="middle">Softmax(q)</text>
 <g transform="translate(25 60)"><rect width="140" height="26" rx="4" fill="#DCEAF5"/><rect width="112" height="26" rx="4" fill="#7799B7"/><text class="t s" x="12" y="18" fill="#fff">αᴬ</text></g>
 <g transform="translate(25 105)"><rect width="140" height="26" rx="4" fill="#F7DFDA"/><rect width="82" height="26" rx="4" fill="#D47C73"/><text class="t s" x="12" y="18" fill="#fff">αⱽ</text></g>
 <g transform="translate(25 150)"><rect width="140" height="26" rx="4" fill="#DDEEE1"/><rect width="52" height="26" rx="4" fill="#70A080"/><text class="t s" x="12" y="18" fill="#fff">αᴸ</text></g>
 <circle cx="95" cy="220" r="25" fill="#fff" stroke="#C89C43" stroke-width="2"/><text class="t h" x="95" y="227" text-anchor="middle">Σ</text>
</g>
<path class="e" d="M1570 374H1624"/>
<g transform="translate(1624 304)"><rect width="170" height="140" rx="6" fill="#F0F3F7" stroke="#657387" stroke-width="1.8"/><text class="t h" x="85" y="34" text-anchor="middle">Fuse</text><rect x="25" y="52" width="120" height="28" rx="4" fill="#D9DEE7"/><text class="t s" x="85" y="72" text-anchor="middle">LayerNorm</text><rect x="25" y="94" width="120" height="28" rx="4" fill="#C6CFDC"/><text class="t s" x="85" y="114" text-anchor="middle">FFN + residual</text></g>
<path class="e" d="M1794 374H1840"/>
<g transform="translate(1840 326)"><rect width="116" height="96" rx="6" fill="#E4E8EF" stroke="#5D687B" stroke-width="1.8"/><path d="M25 28H91M35 49H81M45 70H71" stroke="#5D687B" stroke-width="5" stroke-linecap="round"/></g>
<path class="e" d="M1956 374H2000"/>
<g transform="translate(2000 292)"><rect width="166" height="164" rx="6" fill="#F5FAF6" stroke="#4F8B67" stroke-width="2.2"/><text class="t h" x="83" y="60" text-anchor="middle">PIK3CA</text><line x1="28" y1="82" x2="138" y2="82" stroke="#A8BEAF" stroke-width="2"/><text class="t h" x="83" y="120" text-anchor="middle">MAP3K3</text></g>

<!-- Reconstruction -->
<g transform="translate(54 850)"><rect width="118" height="78" rx="4" fill="#E8F1F8" stroke="#6388A6"/><text class="t m" x="59" y="34" text-anchor="middle">MRI token</text><text class="t s" x="59" y="57" text-anchor="middle">tᴬ</text><rect y="102" width="118" height="78" rx="4" fill="#E6F2E9" stroke="#659476"/><text class="t m" x="59" y="136" text-anchor="middle">Text token</text><text class="t s" x="59" y="159" text-anchor="middle">tᴸ</text></g>
<path class="r" d="M172 889H238V940H294M172 991H238V940H294"/>
<g transform="translate(294 893)"><rect width="150" height="94" rx="6" fill="#F0ECF7" stroke="#7355A5" stroke-width="1.8"/><text class="t h" x="75" y="39" text-anchor="middle">Source fuse</text><text class="t s" x="75" y="67" text-anchor="middle">fₛ</text></g>
<path class="r" d="M444 940H492"/>
<g transform="translate(492 893)"><rect width="142" height="94" rx="6" fill="#FFF6DE" stroke="#C89C43"/><text class="t m" x="71" y="32" text-anchor="middle">p(y|x)</text><rect x="24" y="48" width="94" height="12" rx="3" fill="#EAD79E"/><rect x="24" y="48" width="62" height="12" rx="3" fill="#C89C43"/><rect x="24" y="70" width="94" height="12" rx="3" fill="#DCEAF5"/><rect x="24" y="70" width="30" height="12" rx="3" fill="#6388A6"/></g>
<path class="r" d="M634 940H684"/>
<g transform="translate(684 873)"><rect width="180" height="134" rx="6" fill="#F0ECF7" stroke="#7355A5" stroke-width="1.8"/><text class="t m" x="90" y="28" text-anchor="middle">Prototype bank</text><rect x="25" y="46" width="130" height="30" rx="4" fill="#D9CCEC"/><text class="t s" x="90" y="66" text-anchor="middle">c₀</text><rect x="25" y="88" width="130" height="30" rx="4" fill="#BBA6D9"/><text class="t s" x="90" y="108" text-anchor="middle">c₁</text></g>
<path class="r" d="M864 940H922"/>
<g transform="translate(922 900)"><circle cx="38" cy="40" r="30" fill="#fff" stroke="#7355A5" stroke-width="2"/><text class="t h" x="38" y="47" text-anchor="middle">⊕</text><text class="t s" x="82" y="36">fₛ</text><text class="t s" x="82" y="57">+ ĉ</text></g>
<path class="r" d="M1030 940H1080"/>
<g transform="translate(1080 873)"><rect width="176" height="134" rx="6" fill="#EEE8F6" stroke="#7355A5" stroke-width="1.8"/><text class="t h" x="88" y="35" text-anchor="middle">Gθ</text><rect x="28" y="54" width="120" height="18" rx="4" fill="#D9CCEC"/><rect x="40" y="82" width="96" height="18" rx="4" fill="#C7B6E0"/><rect x="55" y="110" width="66" height="12" rx="4" fill="#AD95D0"/></g>
<path class="r" d="M1256 940H1312"/>
<g transform="translate(1312 869)"><rect width="252" height="142" rx="6" fill="#FFF4F1" stroke="#C66F65" stroke-width="1.8"/><text class="t m" x="126" y="26" text-anchor="middle">Virtual MPM</text><rect x="20" y="43" width="98" height="80" rx="4" fill="#F8DFDA" stroke="#C66F65"/><text class="t m" x="69" y="73" text-anchor="middle">Shared</text><text class="t s" x="69" y="99" text-anchor="middle">μ̂ˢ  σ̂²ˢ</text><rect x="134" y="43" width="98" height="80" rx="4" fill="#EEE8F6" stroke="#8A75AF"/><text class="t m" x="183" y="73" text-anchor="middle">Private</text><text class="t s" x="183" y="99" text-anchor="middle">μ̂ᵖ  σ̂²ᵖ</text></g>
<path class="r" d="M1564 940H1620"/>
<g transform="translate(1620 886)"><rect width="170" height="108" rx="6" fill="#F8FAFC" stroke="#657387" stroke-width="1.8"/><text class="t h" x="85" y="40" text-anchor="middle">Re-fusion</text><text class="t s" x="85" y="72" text-anchor="middle">tᴬ, tᴸ, t̂ⱽ</text></g>
<path class="r" d="M1790 940H1844"/>
<g transform="translate(1844 884)"><rect width="204" height="112" rx="6" fill="#F5FAF6" stroke="#4F8B67" stroke-width="1.8"/><text class="t h" x="102" y="46" text-anchor="middle">Prediction</text><text class="t s" x="102" y="76" text-anchor="middle">without MPM</text></g>
<path d="M865 436V814H1438V869" fill="none" stroke="#C66F65" stroke-width="2" stroke-dasharray="5 5" marker-end="url(#a)"/>
<rect x="1020" y="785" width="292" height="40" rx="5" fill="#fff" stroke="#D7A09A"/><text class="t s" x="1166" y="810" text-anchor="middle">Llat + Lcos + Lrel + LKD</text>

<!-- legend -->
<g transform="translate(1880 64)"><rect width="286" height="120" rx="6" fill="#FAFBFC" stroke="#CFD5DE"/><rect x="18" y="18" width="24" height="17" fill="#DDEAF4"/><text class="t s" x="52" y="32">shared</text><rect x="145" y="18" width="24" height="17" fill="#EEE8F6"/><text class="t s" x="179" y="32">private</text><line x1="18" y1="65" x2="50" y2="65" class="d"/><text class="t s" x="60" y="70">training constraint</text><line x1="18" y1="96" x2="50" y2="96" class="r"/><text class="t s" x="60" y="101">missing branch</text></g>
</svg>
